<svg xmlns="http://www.w3.org/2000/svg" width="58" height="58" viewBox="0 0 58 58">
  <g id="_1" data-name="1" transform="translate(-3801 -2851)">
    <g id="circle_1" data-name="circle #1" transform="translate(3801 2851)" fill="#141e4e" stroke="#fff" stroke-linejoin="round" stroke-width="2">
      <circle cx="29" cy="29" r="29" stroke="none"/>
      <circle cx="29" cy="29" r="28" fill="none"/>
    </g>
    <path id="icon" d="M3839,2880.625a1.274,1.274,0,0,1-2.319.7l-2.531-3.281-2.936,6.669a1.188,1.188,0,0,1-.121.275l-.089.2-.031-.028a1.279,1.279,0,0,1-.973.458,1.3,1.3,0,0,1-.909-.366l-.015.015-.2-.328c-.019-.035-.046-.062-.061-.1l-2.772-4.491-2.83,3.668-.015-.014a1.3,1.3,0,0,1-.909.366,1.268,1.268,0,0,1-1.286-1.25,1.229,1.229,0,0,1,.377-.884l-.015-.015,3.857-5,.015.014a1.312,1.312,0,0,1,1.818,0l.015-.014.2.328c.018.035.046.063.061.1l2.51,4.068,2.794-6.406a1.2,1.2,0,0,1,.146-.336l.111-.253.043.032a1.294,1.294,0,0,1,.921-.384,1.272,1.272,0,0,1,1.03.541l3.728,4.82A1.228,1.228,0,0,1,3839,2880.625Z" fill="#fefeff"/>
  </g>
</svg>
