<svg xmlns="http://www.w3.org/2000/svg" width="58" height="58" viewBox="0 0 58 58">
  <g id="_2" data-name="2" transform="translate(-3801 -3024)">
    <g id="circle_2" data-name="circle #2" transform="translate(3801 3024)" fill="#141e4e" stroke="#f5f5f5" stroke-linejoin="round" stroke-width="2">
      <circle cx="29" cy="29" r="29" stroke="none"/>
      <circle cx="29" cy="29" r="28" fill="none"/>
    </g>
    <path id="icon" d="M5.114,15.963a.893.893,0,0,1-.939-.323L2.114,12.607a.646.646,0,0,1,.3-.956l.714-.35a.906.906,0,0,1,1.126.257l1.367,2.011L11.7,10.588a.911.911,0,0,1,1.127.257l.412.606a.646.646,0,0,1-.3.957l-7.14,3.5A.929.929,0,0,1,5.387,16,.959.959,0,0,1,5.114,15.963Zm11.794-1.651a1.088,1.088,0,0,1-1.158-1v-.125a1.087,1.087,0,0,1,1.158-1h5.934a1.087,1.087,0,0,1,1.158,1v.125a1.088,1.088,0,0,1-1.158,1ZM5.364,8.718a1.088,1.088,0,0,1-1.158-1V7.593a1.088,1.088,0,0,1,1.158-1H22.842a1.088,1.088,0,0,1,1.158,1v.125a1.087,1.087,0,0,1-1.158,1Zm0-5.624a1.088,1.088,0,0,1-1.158-1V2A1.088,1.088,0,0,1,5.364,1H22.842A1.088,1.088,0,0,1,24,2v.094a1.088,1.088,0,0,1-1.158,1Z" transform="translate(3817 3044)" fill="#fefeff"/>
  </g>
</svg>
