<svg xmlns="http://www.w3.org/2000/svg" width="26.577" height="25.072" viewBox="0 0 26.577 25.072">
  <g id="aidownload" transform="translate(-707.5 -643.178)">
    <g id="_2" data-name="2" transform="translate(708 643.678)">
      <ellipse id="_2-2" data-name="2" cx="12.788" cy="12.036" rx="12.788" ry="12.036" transform="translate(0)" fill="none" stroke="#e67733" stroke-width="1"/>
    </g>
    <path id="Shape_sp-9035-0" data-name="Shape sp-9035-0" d="M1.484,13.25h8.06a.484.484,0,0,1,.484.484v.161a.484.484,0,0,1-.484.484H1.484A.484.484,0,0,1,1,13.895v-.161A.484.484,0,0,1,1.484,13.25Z" transform="translate(715 645.849)" fill="#e67733"/>
    <path id="Shape_sp-9035-0-2" data-name="Shape sp-9035-0" d="M7.649,1H7.8a.43.43,0,0,1,.43.43V7.34a.43.43,0,0,1-.43.43H7.649a.43.43,0,0,1-.43-.43V1.43A.43.43,0,0,1,7.649,1Z" transform="translate(712.791 650.2)" fill="#e67733"/>
    <path id="Shape_sp-9035-0-3" data-name="Shape sp-9035-0" d="M4.063,7.2,6.6,8.893a.614.614,0,0,1,.179.771.455.455,0,0,1-.667.207L3.574,8.178A.615.615,0,0,1,3.4,7.407.454.454,0,0,1,4.063,7.2Z" transform="translate(714.172 648.025)" fill="#e67733"/>
    <path id="Shape_sp-9035-0-4" data-name="Shape sp-9035-0" d="M10,7.2,7.463,8.893a.614.614,0,0,0-.179.771.455.455,0,0,0,.667.207l2.538-1.692a.615.615,0,0,0,.179-.771A.454.454,0,0,0,10,7.2Z" transform="translate(712.791 648.025)" fill="#e67733"/>
  </g>
</svg>
