<svg xmlns="http://www.w3.org/2000/svg" width="34.226" height="34.226" viewBox="0 0 34.226 34.226">
  <g id="attachment" transform="translate(-85.569 0)">
    <g id="btn" transform="translate(85.568 -0.001)" fill="#fff" stroke-miterlimit="10">
      <path d="M 17.11368179321289 33.72687911987305 C 12.67624187469482 33.72687911987305 8.504391670227051 31.99880981445312 5.366621971130371 28.86100959777832 C 2.228851795196533 25.72320938110352 0.5008018016815186 21.55131912231445 0.5008018016815186 17.11385917663574 C 0.5008018016815186 12.6763391494751 2.228851795196533 8.504439353942871 5.366621971130371 5.366659164428711 C 8.504371643066406 2.228889226913452 12.67623138427734 0.5008391737937927 17.11368179321289 0.5008391737937927 C 21.5511417388916 0.5008391737937927 25.72299194335938 2.228889226913452 28.86075210571289 5.366659164428711 C 31.99851226806641 8.504439353942871 33.7265625 12.6763391494751 33.7265625 17.11385917663574 C 33.7265625 21.55132865905762 31.99851226806641 25.72320938110352 28.86075210571289 28.86100959777832 C 25.72297096252441 31.99880981445312 21.55112266540527 33.72687911987305 17.11368179321289 33.72687911987305 Z" stroke="none"/>
      <path d="M 17.11368179321289 1.000839233398438 C 12.80978202819824 1.000839233398438 8.763492584228516 2.6768798828125 5.720170974731445 5.720209121704102 C 2.676841735839844 8.7635498046875 1.000801086425781 12.80989837646484 1.000801086425781 17.11385917663574 C 1.000801086425781 21.41777038574219 2.676841735839844 25.4640998840332 5.720170974731445 28.50745964050293 C 8.76350212097168 31.55081939697266 12.80980110168457 33.22687911987305 17.11368179321289 33.22687911987305 C 21.41756057739258 33.22687911987305 25.46385192871094 31.55081939697266 28.5071907043457 28.50745964050293 C 31.55052185058594 25.4640998840332 33.2265625 21.41777038574219 33.2265625 17.11385917663574 C 33.2265625 12.80989837646484 31.55052185058594 8.763559341430664 28.5071907043457 5.720209121704102 C 25.46387100219727 2.6768798828125 21.41758155822754 1.000839233398438 17.11368179321289 1.000839233398438 M 17.11368179321289 0.0008392333984375 C 26.56482124328613 0.0008392333984375 34.2265625 7.662538528442383 34.2265625 17.11385917663574 C 34.2265625 26.56503868103027 26.56482124328613 34.22687911987305 17.11368179321289 34.22687911987305 C 7.662530899047852 34.22687911987305 0.00080108642578125 26.56503868103027 0.00080108642578125 17.11385917663574 C 0.00080108642578125 7.662538528442383 7.662530899047852 0.0008392333984375 17.11368179321289 0.0008392333984375 Z" stroke="none" fill="#ddd"/>
    </g>
    <path id="icon" d="M6.6,0a3.667,3.667,0,0,1,3.667,3.667v8.8A5.134,5.134,0,0,1,0,12.469V6.6H1.467v5.868a3.667,3.667,0,1,0,7.334,0v-8.8a2.2,2.2,0,1,0-4.4,0v8.8a.733.733,0,0,0,1.467,0V4.4H7.334v8.068a2.2,2.2,0,0,1-4.4,0v-8.8A3.667,3.667,0,0,1,6.6,0Z" transform="translate(105.275 6.648) rotate(45)" fill="#83c0ca"/>
  </g>
</svg>
