<svg xmlns="http://www.w3.org/2000/svg" xmlns:xlink="http://www.w3.org/1999/xlink" width="620" height="553" viewBox="0 0 620 553">
  <defs>
    <filter id="base" x="-60" y="-40" width="740" height="673" filterUnits="userSpaceOnUse">
      <feOffset dy="20" input="SourceAlpha"/>
      <feGaussianBlur stdDeviation="20" result="blur"/>
      <feFlood flood-opacity="0.102"/>
      <feComposite operator="in" in2="blur"/>
      <feComposite in="SourceGraphic"/>
    </filter>
    <clipPath id="clip-path">
      <g transform="matrix(1, 0, 0, 1, 0, 0)" filter="url(#base)">
        <rect id="base-2" data-name="base" width="620" height="553" rx="10" fill="rgba(255,255,255,0.75)"/>
      </g>
    </clipPath>
    <filter id="Combined_shape_19148" x="-7.5" y="300.5" width="406" height="202" filterUnits="userSpaceOnUse">
      <feOffset dy="15" input="SourceAlpha"/>
      <feGaussianBlur stdDeviation="12.5" result="blur-2"/>
      <feFlood flood-opacity="0.102"/>
      <feComposite operator="in" in2="blur-2"/>
      <feComposite in="SourceGraphic"/>
    </filter>
    <linearGradient id="linear-gradient" x1="0.583" x2="0.64" y2="1" gradientUnits="objectBoundingBox">
      <stop offset="0" stop-color="#141e4e"/>
      <stop offset="1" stop-color="#83c0ca"/>
    </linearGradient>
    <filter id="Combined_shape_19149" x="173" y="184" width="391" height="161" filterUnits="userSpaceOnUse">
      <feOffset dy="10" input="SourceAlpha"/>
      <feGaussianBlur stdDeviation="10" result="blur-3"/>
      <feFlood flood-color="#141f9f" flood-opacity="0.149"/>
      <feComposite operator="in" in2="blur-3"/>
      <feComposite in="SourceGraphic"/>
    </filter>
    <linearGradient id="linear-gradient-2" x1="0.5" x2="0.5" y2="1" gradientUnits="objectBoundingBox">
      <stop offset="0" stop-color="#ddd"/>
      <stop offset="1" stop-color="#e7e7e7"/>
    </linearGradient>
    <filter id="Combined_shape_19166" x="238" y="111" width="324" height="124" filterUnits="userSpaceOnUse">
      <feOffset dy="10" input="SourceAlpha"/>
      <feGaussianBlur stdDeviation="10" result="blur-4"/>
      <feFlood flood-color="#141f9f" flood-opacity="0.149"/>
      <feComposite operator="in" in2="blur-4"/>
      <feComposite in="SourceGraphic"/>
    </filter>
    <filter id="base-3" x="261.459" y="131.369" width="91.446" height="83.505" filterUnits="userSpaceOnUse">
      <feOffset dy="10" input="SourceAlpha"/>
      <feGaussianBlur stdDeviation="7.5" result="blur-5"/>
      <feFlood flood-opacity="0.149"/>
      <feComposite operator="in" in2="blur-5"/>
      <feComposite in="SourceGraphic"/>
    </filter>
    <filter id="Combined_shape_19148-2" x="-7.5" y="-35.5" width="406" height="202" filterUnits="userSpaceOnUse">
      <feOffset dy="15" input="SourceAlpha"/>
      <feGaussianBlur stdDeviation="12.5" result="blur-6"/>
      <feFlood flood-opacity="0.102"/>
      <feComposite operator="in" in2="blur-6"/>
      <feComposite in="SourceGraphic"/>
    </filter>
    <linearGradient id="linear-gradient-5" x1="0.5" y1="0.567" x2="0.5" y2="1" gradientUnits="objectBoundingBox">
      <stop offset="0" stop-color="#fff"/>
      <stop offset="1" stop-color="#fff" stop-opacity="0"/>
    </linearGradient>
  </defs>
  <g id="bubbles" clip-path="url(#clip-path)">
    <g id="_4" data-name="4" transform="translate(30.155 323)">
      <g transform="matrix(1, 0, 0, 1, -30.16, -323)" filter="url(#Combined_shape_19148)">
        <g id="Combined_shape_19148-3" data-name="Combined shape 19148" transform="translate(30 323)" fill="#fff" stroke-miterlimit="10">
          <path d="M 289.6253662109375 126.5 L 51.7192497253418 126.5 L 10.34366703033447 126.5 C 4.915833473205566 126.5 0.5 122.8748779296875 0.5 118.4189987182617 L 0.5 92.67591857910156 L 0.5 34.32483291625977 C 0.5 29.77075004577637 1.575583338737488 25.35199928283691 3.696833372116089 21.19124984741211 C 5.749625205993652 17.16483306884766 8.69041633605957 13.54708290100098 12.4375 10.43841648101807 C 16.19145774841309 7.32408332824707 20.56454086303711 4.878375053405762 25.43524932861328 3.169250011444092 C 30.48279190063477 1.398083329200745 35.84558486938477 0.5 41.37466812133789 0.5 L 289.6253662109375 0.5 C 295.1544189453125 0.5 300.5172119140625 1.398083329200745 305.5647888183594 3.169250011444092 C 310.4354553222656 4.878375053405762 314.8085327148438 7.32408332824707 318.5625 10.43841648101807 C 322.3095703125 13.54708290100098 325.2503662109375 17.16483306884766 327.3031616210938 21.19124984741211 C 329.4244079589844 25.35199928283691 330.5 29.77075004577637 330.5 34.32483291625977 L 330.5 92.67591857910156 C 330.5 97.23000335693359 329.4244079589844 101.6487503051758 327.3031616210938 105.8093719482422 C 325.2503662109375 109.8357086181641 322.3095703125 113.4534149169922 318.5625 116.5619583129883 C 314.8085327148438 119.6762084960938 310.4354858398438 122.1218338012695 305.5647888183594 123.8308715820312 C 300.5172424316406 125.6019592285156 295.1544494628906 126.5 289.6253662109375 126.5 Z" stroke="none"/>
          <path d="M 289.6253662109375 126 C 295.097900390625 126 300.4050598144531 125.111457824707 305.3992309570312 123.3590927124023 C 310.2137756347656 121.6697235107422 314.5351257324219 119.2533645629883 318.2432861328125 116.1771392822266 C 321.9376831054688 113.1122741699219 324.8359985351562 109.5476379394531 326.8577270507812 105.582275390625 C 328.9427795410156 101.4926376342773 330 97.15027618408203 330 92.67591094970703 L 330 34.32486343383789 C 330 29.85045433044434 328.9427795410156 25.50809097290039 326.8577270507812 21.41836357116699 C 324.8359985351562 17.45290946960449 321.9376831054688 13.88818168640137 318.2432250976562 10.82322692871094 C 314.5350952148438 7.746909141540527 310.2137756347656 5.330454349517822 305.3992309570312 3.641045570373535 C 300.4049987792969 1.888590931892395 295.097900390625 1 289.6253662109375 1 L 41.37463760375977 1 C 35.90209197998047 1 30.59499931335449 1.888590931892395 25.60077285766602 3.641045570373535 C 20.78622817993164 5.330454349517822 16.46490859985352 7.746909141540527 12.75677299499512 10.82322692871094 C 9.062317848205566 13.88818168640137 6.164000034332275 17.45290946960449 4.14227294921875 21.41836357116699 C 2.057227373123169 25.50809097290039 1 29.85045433044434 1 34.32486343383789 L 1 118.4189987182617 C 1 122.5991821289062 5.191545486450195 126 10.34368228912354 126 L 289.6253662109375 126 M 289.6253662109375 127 L 10.34368228912354 127 C 4.631409168243408 127 0 123.1585922241211 0 118.4189987182617 L 0 34.32486343383789 C 0 15.36800003051758 18.52381896972656 7.105427357601002e-15 41.37463760375977 7.105427357601002e-15 L 289.6253662109375 7.105427357601002e-15 C 312.4761962890625 7.105427357601002e-15 331 15.36800003051758 331 34.32486343383789 L 331 92.67591094970703 C 331 111.6327743530273 312.4761962890625 127 289.6253662109375 127 Z" stroke="none" fill="#ddd"/>
        </g>
      </g>
      <text id="Ut_ultricies_felis_s" data-name="Ut ultricies felis s" transform="translate(24.845 21)" fill="#666" font-size="14" font-family="Montserrat-SemiBold, Montserrat" font-weight="600" letter-spacing="0.054em"><tspan x="0" y="14">Ut ultricies felis sit amet diam </tspan><tspan x="0" y="40">egestas, et convallis enim </tspan><tspan x="0" y="66">bibendum. augue interdum.</tspan></text>
      <text id="_2_MIN_AGO" data-name="2 MIN AGO" transform="translate(26.845 93)" fill="#aaa" font-size="10" font-family="Montserrat-Bold, Montserrat" font-weight="700" letter-spacing="0.15em"><tspan x="0" y="10">2 MIN AGO</tspan></text>
    </g>
    <g id="_3" data-name="3" transform="translate(202.646 204)">
      <g transform="matrix(1, 0, 0, 1, -202.65, -204)" filter="url(#Combined_shape_19149)">
        <path id="Combined_shape_19149-2" data-name="Combined shape 19149" d="M279.282,101H41.375C18.524,101,0,85.8,0,67.051v-33.1C0,15.2,18.524,0,41.375,0H289.625C312.476,0,331,15.2,331,33.949V92.513C331,97.2,326.37,101,320.656,101Z" transform="translate(203 204)" fill="url(#linear-gradient)"/>
      </g>
      <text id="Donec_auctor_risus_et_nisi_tincidunt_sit_amet_eleifend_augue" data-name="Donec auctor risus et nisi tincidunt, sit amet eleifend augue" transform="translate(25.354 21)" fill="#fff" font-size="14" font-family="Montserrat-SemiBold, Montserrat" font-weight="600" letter-spacing="0.054em"><tspan x="0" y="14">Donec auctor risus et nisi tincidunt, </tspan><tspan x="0" y="40">sit amet eleifend augue</tspan></text>
      <text id="_2_MIN_AGO-2" data-name="2 MIN AGO" transform="translate(25.354 70)" fill="#fff" font-size="10" font-family="Montserrat-Bold, Montserrat" font-weight="700" letter-spacing="0.15em" opacity="0.75"><tspan x="0" y="10">2 MIN AGO</tspan></text>
      <g id="thumb" transform="translate(340.383 63.943)">
        <g id="thumb-2" data-name="thumb" transform="translate(0 0)" stroke-miterlimit="10" fill="url(#linear-gradient-2)">
          <path d="M 18.82485580444336 37.15006637573242 C 16.35084533691406 37.15006637573242 13.95108509063721 36.66562652587891 11.69223594665527 35.71019744873047 C 9.510195732116699 34.78725814819336 7.550415515899658 33.46588516235352 5.867325782775879 31.78278732299805 C 4.184225559234619 30.09968757629395 2.862855672836304 28.1398868560791 1.939915537834167 25.95782661437988 C 0.9844855666160583 23.6989574432373 0.5000455379486084 21.29916763305664 0.5000455379486084 18.82510757446289 C 0.5000455379486084 16.35104751586914 0.9844855666160583 13.95125675201416 1.939915537834167 11.69238662719727 C 2.862855672836304 9.510346412658691 4.184225559234619 7.550556659698486 5.867315769195557 5.867476940155029 C 7.550405502319336 4.184396743774414 9.510195732116699 2.863036632537842 11.69223594665527 1.94011664390564 C 13.95107555389404 0.9846966862678528 16.3508358001709 0.5002667307853699 18.82485580444336 0.5002667307853699 C 21.29894638061523 0.5002667307853699 23.69876480102539 0.9846966862678528 25.95765495300293 1.94011664390564 C 28.13973617553711 2.863046646118164 30.09955596923828 4.184396743774414 31.78267478942871 5.867476940155029 C 33.46578598022461 7.550556659698486 34.78717422485352 9.510346412658691 35.71012496948242 11.69239711761475 C 36.66555404663086 13.95124626159668 37.15000534057617 16.35104751586914 37.15000534057617 18.82510757446289 C 37.15000534057617 21.29916763305664 36.66555404663086 23.6989574432373 35.71012496948242 25.95782661437988 C 34.78717422485352 28.1398868560791 33.46578598022461 30.09968757629395 31.78267478942871 31.78278732299805 C 30.09955596923828 33.46588516235352 28.13973617553711 34.78725814819336 25.95765495300293 35.71019744873047 C 23.69875526428223 36.66562652587891 21.29893493652344 37.15006637573242 18.82485580444336 37.15006637573242 Z" stroke="none"/>
          <path d="M 18.82485580444336 1.000267028808594 C 14.06373596191406 1.000267028808594 9.587554931640625 2.854366302490234 6.220874786376953 6.221027374267578 C 2.854175567626953 9.58770751953125 1.000045776367188 14.06392669677734 1.000045776367188 18.82510757446289 C 1.000045776367188 23.5862865447998 2.854175567626953 28.0625171661377 6.220874786376953 31.42923736572266 C 9.587566375732422 34.79593658447266 14.06374549865723 36.65006637573242 18.82485580444336 36.65006637573242 C 23.58609580993652 36.65006637573242 28.06237602233887 34.79593658447266 31.42911529541016 31.42922592163086 C 34.79585647583008 28.06252670288086 36.65000534057617 23.58629608154297 36.65000534057617 18.82510757446289 C 36.65000534057617 14.06391716003418 34.79585647583008 9.58770751953125 31.42912673950195 6.221036911010742 C 28.0623950958252 2.854366302490234 23.58610534667969 1.000267028808594 18.82485580444336 1.000267028808594 M 18.82485580444336 0.00026702880859375 C 29.22163581848145 0.00026702880859375 37.65000534057617 8.428396224975586 37.65000534057617 18.82510757446289 C 37.65000534057617 29.22178649902344 29.22163581848145 37.65006637573242 18.82485580444336 37.65006637573242 C 8.428365707397461 37.65006637573242 4.57763671875e-05 29.22178649902344 4.57763671875e-05 18.82510757446289 C 4.57763671875e-05 8.428396224975586 8.428365707397461 0.00026702880859375 18.82485580444336 0.00026702880859375 Z" stroke="none" fill="#ddd"/>
        </g>
      </g>
    </g>
    <g id="_2" data-name="2" transform="translate(267.782 131)">
      <g transform="matrix(1, 0, 0, 1, -267.78, -131)" filter="url(#Combined_shape_19166)">
        <path id="Combined_shape_19166-2" data-name="Combined shape 19166" d="M213.469,64H38.671C17.314,64,0,49.674,0,32S17.314,0,38.671,0H225.329C246.686,0,264,14.327,264,32q0,.707-.037,1.407a7.164,7.164,0,0,1,.037.725V55.467C264,60.18,259.383,64,253.688,64Z" transform="translate(268 131)" fill="url(#linear-gradient)"/>
      </g>
      <path id="line" d="M0,0H13.418V1.711H0Z" transform="translate(140.035 41.962)" fill="rgba(255,255,255,0.5)"/>
      <text id="ZIP_FILE_56.5MB" data-name="ZIP FILE      56.5MB" transform="translate(77.218 37)" fill="#fff" font-size="10" font-family="Montserrat-Bold, Montserrat" font-weight="700" letter-spacing="0.15em" opacity="0.75"><tspan x="0" y="10" xml:space="preserve">ZIP FILE      56.5MB</tspan></text>
      <text id="Doc_001" data-name="Doc 001" transform="translate(77.218 16)" fill="#fff" font-size="14" font-family="Montserrat-SemiBold, Montserrat" font-weight="600" letter-spacing="0.054em"><tspan x="0" y="14">Doc 001</tspan></text>
      <g transform="matrix(1, 0, 0, 1, -267.78, -131)" filter="url(#base-3)">
        <g id="base-4" data-name="base" transform="translate(283.96 143.87)" fill="rgba(255,255,255,0.15)" stroke-miterlimit="10">
          <path d="M23.223,0C36.049,0,46.446,8.62,46.446,19.253s-10.4,19.253-23.223,19.253S0,29.886,0,19.253,10.4,0,23.223,0Z" stroke="none"/>
          <path d="M 23.2230339050293 1.000270843505859 C 10.96928405761719 1.000270843505859 1.000133514404297 9.188373565673828 1.000133514404297 19.2529125213623 C 1.000133514404297 29.31754302978516 10.96928405761719 37.50571441650391 23.2230339050293 37.50571441650391 C 35.47703552246094 37.50571441650391 45.44639587402344 29.31754302978516 45.44639587402344 19.2529125213623 C 45.44639587402344 9.188373565673828 35.47703552246094 1.000270843505859 23.2230339050293 1.000270843505859 M 23.2230339050293 0.000270843505859375 C 36.0486946105957 0.000270843505859375 46.44639587402344 8.619953155517578 46.44639587402344 19.2529125213623 C 46.44639587402344 29.88587188720703 36.0486946105957 38.50571441650391 23.2230339050293 38.50571441650391 C 10.39732360839844 38.50571441650391 0.000133514404296875 29.88587188720703 0.000133514404296875 19.2529125213623 C 0.000133514404296875 8.619953155517578 10.39732360839844 0.000270843505859375 23.2230339050293 0.000270843505859375 Z" stroke="none" fill="rgba(255,255,255,0.25)"/>
        </g>
      </g>
      <path id="Combined_Shape" data-name="Combined Shape" d="M3.166,17C1.42,17,0,15.856,0,14.45V2.55C0,1.144,1.42,0,3.166,0h8.445C15.685,0,19,2.669,19,5.95v8.5C19,15.856,17.58,17,15.834,17ZM2.111,2.55v11.9a.97.97,0,0,0,1.055.85H15.834a.97.97,0,0,0,1.055-.85V5.95H10.555V1.7H3.166A.97.97,0,0,0,2.111,2.55Zm10.555,1.7H16.45a5.2,5.2,0,0,0-3.784-2.466ZM4.222,13.6V11.9H14.778v1.7Zm0-3.4V8.5H14.778v1.7Zm0-3.4V5.1H8.445V6.8Z" transform="translate(30.218 24)" fill="#fff"/>
      <g id="thumb-3" data-name="thumb" transform="translate(275.246 26.56)">
        <g id="thumb-4" data-name="thumb" transform="translate(0 0)" stroke-miterlimit="10" fill="url(#linear-gradient-2)">
          <path d="M 18.82485580444336 37.15006637573242 C 16.35084533691406 37.15006637573242 13.95108509063721 36.66562652587891 11.69223594665527 35.71019744873047 C 9.510195732116699 34.78725814819336 7.550415515899658 33.46588516235352 5.867325782775879 31.78278732299805 C 4.184225559234619 30.09968757629395 2.862855672836304 28.1398868560791 1.939915537834167 25.95782661437988 C 0.9844855666160583 23.6989574432373 0.5000455379486084 21.29916763305664 0.5000455379486084 18.82510757446289 C 0.5000455379486084 16.35104751586914 0.9844855666160583 13.95125675201416 1.939915537834167 11.69238662719727 C 2.862855672836304 9.510346412658691 4.184225559234619 7.550556659698486 5.867315769195557 5.867476940155029 C 7.550405502319336 4.184396743774414 9.510195732116699 2.863036632537842 11.69223594665527 1.94011664390564 C 13.95107555389404 0.9846966862678528 16.3508358001709 0.5002667307853699 18.82485580444336 0.5002667307853699 C 21.29894638061523 0.5002667307853699 23.69876480102539 0.9846966862678528 25.95765495300293 1.94011664390564 C 28.13973617553711 2.863046646118164 30.09955596923828 4.184396743774414 31.78267478942871 5.867476940155029 C 33.46578598022461 7.550556659698486 34.78717422485352 9.510346412658691 35.71012496948242 11.69239711761475 C 36.66555404663086 13.95124626159668 37.15000534057617 16.35104751586914 37.15000534057617 18.82510757446289 C 37.15000534057617 21.29916763305664 36.66555404663086 23.6989574432373 35.71012496948242 25.95782661437988 C 34.78717422485352 28.1398868560791 33.46578598022461 30.09968757629395 31.78267478942871 31.78278732299805 C 30.09955596923828 33.46588516235352 28.13973617553711 34.78725814819336 25.95765495300293 35.71019744873047 C 23.69875526428223 36.66562652587891 21.29893493652344 37.15006637573242 18.82485580444336 37.15006637573242 Z" stroke="none"/>
          <path d="M 18.82485580444336 1.000267028808594 C 14.06373596191406 1.000267028808594 9.587554931640625 2.854366302490234 6.220874786376953 6.221027374267578 C 2.854175567626953 9.58770751953125 1.000045776367188 14.06392669677734 1.000045776367188 18.82510757446289 C 1.000045776367188 23.5862865447998 2.854175567626953 28.0625171661377 6.220874786376953 31.42923736572266 C 9.587566375732422 34.79593658447266 14.06374549865723 36.65006637573242 18.82485580444336 36.65006637573242 C 23.58609580993652 36.65006637573242 28.06237602233887 34.79593658447266 31.42911529541016 31.42922592163086 C 34.79585647583008 28.06252670288086 36.65000534057617 23.58629608154297 36.65000534057617 18.82510757446289 C 36.65000534057617 14.06391716003418 34.79585647583008 9.58770751953125 31.42912673950195 6.221036911010742 C 28.0623950958252 2.854366302490234 23.58610534667969 1.000267028808594 18.82485580444336 1.000267028808594 M 18.82485580444336 0.00026702880859375 C 29.22163581848145 0.00026702880859375 37.65000534057617 8.428396224975586 37.65000534057617 18.82510757446289 C 37.65000534057617 29.22178649902344 29.22163581848145 37.65006637573242 18.82485580444336 37.65006637573242 C 8.428365707397461 37.65006637573242 4.57763671875e-05 29.22178649902344 4.57763671875e-05 18.82510757446289 C 4.57763671875e-05 8.428396224975586 8.428365707397461 0.00026702880859375 18.82485580444336 0.00026702880859375 Z" stroke="none" fill="#ddd"/>
        </g>
      </g>
    </g>
    <g id="_1" data-name="1" transform="translate(30.155 -13)">
      <g transform="matrix(1, 0, 0, 1, -30.16, 13)" filter="url(#Combined_shape_19148-2)">
        <g id="Combined_shape_19148-4" data-name="Combined shape 19148" transform="translate(30 -13)" fill="#fff" stroke-miterlimit="10">
          <path d="M 289.6253662109375 126.5 L 51.7192497253418 126.5 L 10.34366703033447 126.5 C 4.915833473205566 126.5 0.5 122.8748779296875 0.5 118.4189987182617 L 0.5 92.67591857910156 L 0.5 34.32483291625977 C 0.5 29.77075004577637 1.575583338737488 25.35199928283691 3.696833372116089 21.19124984741211 C 5.749625205993652 17.16483306884766 8.69041633605957 13.54708290100098 12.4375 10.43841648101807 C 16.19145774841309 7.32408332824707 20.56454086303711 4.878375053405762 25.43524932861328 3.169250011444092 C 30.48279190063477 1.398083329200745 35.84558486938477 0.5 41.37466812133789 0.5 L 289.6253662109375 0.5 C 295.1544189453125 0.5 300.5172119140625 1.398083329200745 305.5647888183594 3.169250011444092 C 310.4354553222656 4.878375053405762 314.8085327148438 7.32408332824707 318.5625 10.43841648101807 C 322.3095703125 13.54708290100098 325.2503662109375 17.16483306884766 327.3031616210938 21.19124984741211 C 329.4244079589844 25.35199928283691 330.5 29.77075004577637 330.5 34.32483291625977 L 330.5 92.67591857910156 C 330.5 97.23000335693359 329.4244079589844 101.6487503051758 327.3031616210938 105.8093719482422 C 325.2503662109375 109.8357086181641 322.3095703125 113.4534149169922 318.5625 116.5619583129883 C 314.8085327148438 119.6762084960938 310.4354858398438 122.1218338012695 305.5647888183594 123.8308715820312 C 300.5172424316406 125.6019592285156 295.1544494628906 126.5 289.6253662109375 126.5 Z" stroke="none"/>
          <path d="M 289.6253662109375 126 C 295.097900390625 126 300.4050598144531 125.111457824707 305.3992309570312 123.3590927124023 C 310.2137756347656 121.6697235107422 314.5351257324219 119.2533645629883 318.2432861328125 116.1771392822266 C 321.9376831054688 113.1122741699219 324.8359985351562 109.5476379394531 326.8577270507812 105.582275390625 C 328.9427795410156 101.4926376342773 330 97.15027618408203 330 92.67591094970703 L 330 34.32486343383789 C 330 29.85045433044434 328.9427795410156 25.50809097290039 326.8577270507812 21.41836357116699 C 324.8359985351562 17.45290946960449 321.9376831054688 13.88818168640137 318.2432250976562 10.82322692871094 C 314.5350952148438 7.746909141540527 310.2137756347656 5.330454349517822 305.3992309570312 3.641045570373535 C 300.4049987792969 1.888590931892395 295.097900390625 1 289.6253662109375 1 L 41.37463760375977 1 C 35.90209197998047 1 30.59499931335449 1.888590931892395 25.60077285766602 3.641045570373535 C 20.78622817993164 5.330454349517822 16.46490859985352 7.746909141540527 12.75677299499512 10.82322692871094 C 9.062317848205566 13.88818168640137 6.164000034332275 17.45290946960449 4.14227294921875 21.41836357116699 C 2.057227373123169 25.50809097290039 1 29.85045433044434 1 34.32486343383789 L 1 118.4189987182617 C 1 122.5991821289062 5.191545486450195 126 10.34368228912354 126 L 289.6253662109375 126 M 289.6253662109375 127 L 10.34368228912354 127 C 4.631409168243408 127 0 123.1585922241211 0 118.4189987182617 L 0 34.32486343383789 C 0 15.36800003051758 18.52381896972656 7.105427357601002e-15 41.37463760375977 7.105427357601002e-15 L 289.6253662109375 7.105427357601002e-15 C 312.4761962890625 7.105427357601002e-15 331 15.36800003051758 331 34.32486343383789 L 331 92.67591094970703 C 331 111.6327743530273 312.4761962890625 127 289.6253662109375 127 Z" stroke="none" fill="#ddd"/>
        </g>
      </g>
      <text id="Ut_ultricies_felis_s-2" data-name="Ut ultricies felis s" transform="translate(24.845 22)" fill="#666" font-size="14" font-family="Montserrat-SemiBold, Montserrat" font-weight="600" letter-spacing="0.054em"><tspan x="0" y="14">Ut ultricies felis sit amet diam </tspan><tspan x="0" y="40">egestas, et convallis enim </tspan><tspan x="0" y="66">bibendum. augue interdum.</tspan></text>
      <text id="_2_MIN_AGO-3" data-name="2 MIN AGO" transform="translate(26.845 94)" fill="#aaa" font-size="10" font-family="Montserrat-Bold, Montserrat" font-weight="700" letter-spacing="0.15em"><tspan x="0" y="10">2 MIN AGO</tspan></text>
    </g>
    <rect id="gradient" width="620" height="126" rx="10" fill="url(#linear-gradient-5)"/>
  </g>
</svg>
