<svg xmlns="http://www.w3.org/2000/svg" xmlns:xlink="http://www.w3.org/1999/xlink" width="92" height="92" viewBox="0 0 92 92">
  <defs>
    <linearGradient id="linear-gradient" x1="0.5" x2="0.5" y2="1" gradientUnits="objectBoundingBox">
      <stop offset="0" stop-color="#d1df73"/>
      <stop offset="1" stop-color="#83c0ca"/>
    </linearGradient>
  </defs>
  <g id="cross" transform="translate(-731 -102)">
    <circle id="base" cx="46" cy="46" r="46" transform="translate(731 102)" fill="url(#linear-gradient)"/>
    <g id="x" transform="translate(770 135.996)">
      <g id="Group_125" data-name="Group 125" transform="translate(-43 -12.996)">
        <path id="Path_49" data-name="Path 49" d="M11.428,9.8l14.83-14.83a1.151,1.151,0,0,0,0-1.63,1.151,1.151,0,0,0-1.63,0L9.8,8.172-5.032-6.658a1.151,1.151,0,0,0-1.63,0,1.151,1.151,0,0,0,0,1.63L8.168,9.8l-14.83,14.83a1.151,1.151,0,0,0,0,1.63,1.149,1.149,0,0,0,.815.338,1.15,1.15,0,0,0,.815-.338L9.8,11.432l14.83,14.83a1.152,1.152,0,0,0,1.63-1.63Z" transform="translate(40 14.996)" fill="#fff"/>
      </g>
    </g>
  </g>
</svg>
