<svg xmlns="http://www.w3.org/2000/svg" width="26.369" height="26.369" viewBox="0 0 26.369 26.369">
  <path id="Path_5503" data-name="Path 5503" d="M88.579,18.581a13.174,13.174,0,1,1,0,18.631A13.149,13.149,0,0,1,88.579,18.581Zm6.276,4.4,3.023,3.023,3.056-3.023a1.325,1.325,0,0,1,1.873,1.873L99.751,27.88l3.056,3.056a1.325,1.325,0,0,1-1.873,1.873l-3.056-3.056-3.023,3.056a1.325,1.325,0,0,1-1.873-1.873L96,27.88l-3.023-3.023A1.324,1.324,0,0,1,94.855,22.984Z" transform="translate(-84.71 -14.712)" fill-rule="evenodd"/>
</svg>
