<svg id="dashboard" xmlns="http://www.w3.org/2000/svg" width="20.006" height="20.008" viewBox="0 0 20.006 20.008">
  <path id="Combined_shape_11934" data-name="Combined shape 11934" d="M0,10a10,10,0,1,1,10,10A10.015,10.015,0,0,1,0,10Zm2,0a8,8,0,1,0,8-8A8.012,8.012,0,0,0,2,10ZM9.66,13.476c-.474-.1-.756-.482-.629-.854l1.228-3.6a.935.935,0,0,1,1.089-.494c.474.1.756.482.629.855l-1.228,3.6a.881.881,0,0,1-.858.517A1.122,1.122,0,0,1,9.66,13.476ZM5.5,10H4a6,6,0,1,1,12,0H14.5a4.5,4.5,0,1,0-9,0h0Z" fill="#fafafa"/>
</svg>
