<svg xmlns="http://www.w3.org/2000/svg" width="24" height="24" viewBox="0 0 24 24">
  <g id="delete" transform="translate(-871 -222)">
    <circle id="_2" data-name="2" cx="12" cy="12" r="12" transform="translate(871 222)" fill="#a1a1a1"/>
    <g id="actions" transform="translate(-1886.421 -4414.662)">
      <path id="delete_icon" data-name="delete icon" d="M2.116,11a.484.484,0,0,1-.451-.428L.618,2.444H.611a.611.611,0,1,1,0-1.222h2.6l.1-.7A.632.632,0,0,1,3.94,0H5.064a.629.629,0,0,1,.629.518l.091.7h2.6a.611.611,0,1,1,0,1.222h-.01l-1.06,8.128A.487.487,0,0,1,6.867,11Zm.415-1.223H6.469l.843-7.332H1.688Zm3-.915-.245-.023a.267.267,0,0,1-.224-.3L5.45,3.609a.256.256,0,0,1,.266-.25l.246.024a.267.267,0,0,1,.224.3L5.8,8.612a.258.258,0,0,1-.244.251ZM3.2,8.612,2.813,3.68a.267.267,0,0,1,.224-.3l.246-.024a.256.256,0,0,1,.266.25L3.937,8.54a.267.267,0,0,1-.224.3l-.246.023H3.443A.257.257,0,0,1,3.2,8.612Z" transform="translate(2765.421 4642.663)" fill="#343434"/>
    </g>
  </g>
</svg>
