<svg id="designinspiration" xmlns="http://www.w3.org/2000/svg" width="21.007" height="13.005" viewBox="0 0 21.007 13.005">
  <path id="Combined_shape_11929" data-name="Combined shape 11929" d="M1,13.005a1,1,0,0,1-1-1V11a1,1,0,0,1,1-1H2a1,1,0,0,1,1,1v1a1,1,0,0,1-1,1Zm6-.5a1,1,0,0,1,0-2h13a1,1,0,1,1,0,2ZM1,8A1,1,0,0,1,0,7V6A1,1,0,0,1,1,5H2A1,1,0,0,1,3,6V7A1,1,0,0,1,2,8Zm6-.5a1,1,0,0,1,0-2h13a1,1,0,1,1,0,2ZM1,3A1,1,0,0,1,0,2V1A1,1,0,0,1,1,0H2A1,1,0,0,1,3,1V2A1,1,0,0,1,2,3Zm6-.5a1,1,0,0,1,0-2h13a1,1,0,1,1,0,2Z" fill="#fefeff"/>
</svg>
