<svg id="designreview" xmlns="http://www.w3.org/2000/svg" width="19.58" height="17.411" viewBox="0 0 19.58 17.411">
  <path id="add_task_icon" data-name="add task icon" d="M1.089,17.411A1.089,1.089,0,0,1,0,16.322V1.089A1.089,1.089,0,0,1,1.089,0H16.322a1.089,1.089,0,0,1,1.089,1.089V4.352L15.234,6.529V2.176H2.176V15.234H17.411v1.089a1.089,1.089,0,0,1-1.089,1.089ZM12.839,14,9.775,10.991a.527.527,0,0,1,0-.755l.774-.76a.553.553,0,0,1,.771,0l1.915,1.878,4.648-4.559a.552.552,0,0,1,.77,0l.767.751a.527.527,0,0,1,0,.755L14,13.612l-.013.013-.374.368a.555.555,0,0,1-.389.159A.543.543,0,0,1,12.839,14Z" fill="#fafafa"/>
</svg>
