<svg xmlns="http://www.w3.org/2000/svg" width="23" height="23" viewBox="0 0 23 23">
  <g id="download_icon" transform="translate(-2282 -1675)">
    <g id="_1" data-name="1" transform="translate(2281.925 1675)">
      <path id="_1-2" data-name="1" d="M11.5,0A11.5,11.5,0,1,1,0,11.5,11.5,11.5,0,0,1,11.5,0Z" transform="translate(0.075)" fill="#a1a1a1"/>
    </g>
    <path id="icon" d="M.482,9A.482.482,0,0,1,0,8.517v-.16a.482.482,0,0,1,.482-.483H8.517A.482.482,0,0,1,9,8.357v.16A.482.482,0,0,1,8.517,9ZM4.427,6.75a.428.428,0,0,1-.376-.223L1.741,4.988a.613.613,0,0,1-.178-.769.453.453,0,0,1,.665-.206L4,5.193V.429A.429.429,0,0,1,4.427,0h.147A.429.429,0,0,1,5,.429V5.193l1.769-1.18a.453.453,0,0,1,.665.206.614.614,0,0,1-.178.769L4.95,6.526a.429.429,0,0,1-.377.224Z" transform="translate(2289 1682)" fill="#707070"/>
  </g>
</svg>
