<svg xmlns="http://www.w3.org/2000/svg" width="33" height="32" viewBox="0 0 33 32">
  <g id="download" transform="translate(-1287 -337.5)">
    <g id="btn" transform="translate(1287 337.5)" fill="#141e4e" stroke="#ddd" stroke-miterlimit="10" stroke-width="1">
      <ellipse cx="16.5" cy="16" rx="16.5" ry="16" stroke="none"/>
      <ellipse cx="16.5" cy="16" rx="16" ry="15.5" fill="none"/>
    </g>
    <path id="icon" d="M.8,15a.8.8,0,0,1-.8-.8v-.267a.8.8,0,0,1,.8-.8H14.2a.8.8,0,0,1,.8.8V14.2a.8.8,0,0,1-.8.8Zm6.574-3.75a.714.714,0,0,1-.627-.372L2.9,8.313a1.021,1.021,0,0,1-.3-1.281.755.755,0,0,1,1.109-.343L6.663,8.654V.715A.714.714,0,0,1,7.378,0h.245a.715.715,0,0,1,.715.715v7.94l2.949-1.966a.755.755,0,0,1,1.109.343,1.024,1.024,0,0,1-.3,1.281L8.25,10.877a.715.715,0,0,1-.628.373Z" transform="translate(1296 344.486)" fill="#83c0ca"/>
  </g>
</svg>
