<svg xmlns="http://www.w3.org/2000/svg" width="15" height="15" viewBox="0 0 15 15">
  <path id="download" d="M.8,15a.8.8,0,0,1-.8-.8v-.267a.8.8,0,0,1,.8-.8H14.2a.8.8,0,0,1,.8.8V14.2a.8.8,0,0,1-.8.8Zm6.574-3.75a.714.714,0,0,1-.627-.372L2.9,8.313a1.021,1.021,0,0,1-.3-1.281.755.755,0,0,1,1.109-.343L6.663,8.654V.715A.714.714,0,0,1,7.378,0h.245a.715.715,0,0,1,.715.715v7.94l2.949-1.966a.755.755,0,0,1,1.109.343,1.024,1.024,0,0,1-.3,1.281L8.25,10.877a.715.715,0,0,1-.628.373Z" fill="#83c0ca"/>
</svg>
