<svg id="fileupload" xmlns="http://www.w3.org/2000/svg" width="19" height="19" viewBox="0 0 19 19">
  <path id="icon" d="M1.017,19A1.018,1.018,0,0,1,0,17.981v-.338a1.018,1.018,0,0,1,1.017-1.019H17.981A1.018,1.018,0,0,1,19,17.643v.338A1.018,1.018,0,0,1,17.981,19Zm8.327-4.75a.9.9,0,0,1-.795-.472L3.676,10.53A1.294,1.294,0,0,1,3.3,8.906a.956.956,0,0,1,1.4-.435L8.44,10.962V.905A.9.9,0,0,1,9.345,0h.31a.905.905,0,0,1,.905.905V10.962L14.3,8.472a.956.956,0,0,1,1.4.435,1.3,1.3,0,0,1-.376,1.623L10.45,13.777a.905.905,0,0,1-.8.473Z" transform="translate(19 19) rotate(180)" fill="#fefeff"/>
</svg>
