<svg id="forgotpassword" xmlns="http://www.w3.org/2000/svg" width="18.014" height="18.018" viewBox="0 0 18.014 18.018">
  <path id="icon" d="M13.789,18.009h0a.7.7,0,0,1-.5-.206l-1.76-1.757a.7.7,0,0,1-.206-.5V9.993c-.137-.044-.272-.094-.374-.131l-.568.566a2.216,2.216,0,0,1-1.571.65,2.24,2.24,0,0,1-.862-.173,8.288,8.288,0,0,1-1.11-.565.7.7,0,1,1,.736-1.2,6.809,6.809,0,0,0,.914.465.825.825,0,0,0,.32.065.815.815,0,0,0,.579-.239l.427-.425a2.229,2.229,0,0,1-.392-1.264V7.086a.711.711,0,0,1-.356-.192L7.8,5.627a.7.7,0,0,1,1-1l.628.628V4.922a2.221,2.221,0,0,1,.227-.973A6.369,6.369,0,0,0,8.2,3.178a.822.822,0,0,0-.874.184L5.334,5.342a.809.809,0,0,0-.171.9,7.926,7.926,0,0,0,.366.725.707.707,0,0,1,.065.545l-.007.025a.707.707,0,0,1-.178.3L1.4,11.848V13.4H2.523v-.95a.7.7,0,0,1,.7-.7h.918V10.9a.7.7,0,1,1,1.408,0v1.548a.7.7,0,0,1-.7.7H3.93v.95a.7.7,0,0,1-.7.7H.7a.7.7,0,0,1-.7-.7V11.556a.7.7,0,0,1,.206-.5L4.058,7.2c-.063-.125-.123-.255-.181-.384a2.224,2.224,0,0,1,.464-2.467L6.33,2.365A2.247,2.247,0,0,1,7.9,1.716a2.215,2.215,0,0,1,.795.147c.069.026.137.053.205.081A2.785,2.785,0,0,1,11.569-.009h.021A2.8,2.8,0,0,1,14.33,2.24a7.945,7.945,0,0,1,2.347.633,2.223,2.223,0,0,1,1.33,2.044V7.77a2.237,2.237,0,0,1-1.39,2.066,7.715,7.715,0,0,1-1.155.376.7.7,0,0,1-.328-1.369,6.32,6.32,0,0,0,.945-.308.846.846,0,0,0,.521-.768V4.915a.816.816,0,0,0-.488-.752,6.527,6.527,0,0,0-1.729-.5V4.777h.211a.7.7,0,1,1,0,1.408H12.835a.7.7,0,0,1,0-1.408h.141v-1.1a6.483,6.483,0,0,0-1.651.494.836.836,0,0,0-.5.757V7.743a.82.82,0,0,0,.516.765,8.329,8.329,0,0,0,.826.269.7.7,0,0,1,.321.186L12.528,9a.7.7,0,0,1,.2.494v5.763l1.05,1.049.744-.759-.61-.625a.706.706,0,0,1,.009-.992l.623-.616-.621-.61a.7.7,0,0,1,.986-1l1.13,1.11a.7.7,0,0,1,0,1l-.633.626.6.617a.707.707,0,0,1,0,.985L14.288,17.8A.707.707,0,0,1,13.789,18.009ZM11.569,1.4a1.388,1.388,0,0,0-1.376,1.218c.157.1.309.209.451.319.031-.016.066-.033.106-.051a7.827,7.827,0,0,1,2.125-.618A1.382,1.382,0,0,0,11.589,1.4h-.021Z" transform="translate(0.007 0.009)" fill="#141e4e"/>
</svg>
