<svg id="graphictemplate" xmlns="http://www.w3.org/2000/svg" width="19.017" height="18.002" viewBox="0 0 19.017 18.002">
  <path id="Combined_shape_11925" data-name="Combined shape 11925" d="M8.461,17.791.414,13.712C.147,13.576,0,13.4,0,13.2s.15-.375.423-.512l1.366-.687H1.9l6.024,3.3h.138a3.71,3.71,0,0,0,2.9,0h.137l6.25-3.254,1.262.64c.267.136.414.316.414.508s-.15.375-.422.512l-8.114,4.079A2.3,2.3,0,0,1,9.469,18,2.277,2.277,0,0,1,8.461,17.791Zm0-4.2L.414,9.511C.147,9.375,0,9.2,0,9s.15-.375.423-.512L1.8,7.8h.286L1.9,7.8l6.024,3.3h.114a3.689,3.689,0,0,0,2.942,0h.114l6.25-3.254,1.262.64c.267.135.414.315.414.507s-.15.376-.422.513l-8.114,4.078a2.3,2.3,0,0,1-1.012.212A2.277,2.277,0,0,1,8.461,13.589Zm0-4.2L.414,5.309c-.555-.282-.552-.738.009-1.02L8.536.212a2.519,2.519,0,0,1,2.02,0L18.6,4.289c.555.282.552.738-.008,1.02L10.481,9.388a2.519,2.519,0,0,1-2.02,0Z" transform="translate(0 0)" fill="#fefeff"/>
</svg>
