<svg id="hide" xmlns="http://www.w3.org/2000/svg" width="19.312" height="14.5" viewBox="0 0 19.312 14.5">
  <g id="Group_99" data-name="Group 99" transform="translate(0 1.603)">
    <path id="Path_40" data-name="Path 40" d="M1550.571,337.472a2.063,2.063,0,0,0-.506-.682,20.27,20.27,0,0,0-3.644-2.618l-.569.569.171.092a19.363,19.363,0,0,1,3.528,2.531,1.214,1.214,0,0,1,0,1.847c-1.648,1.477-4.94,3.954-8.46,3.954a9.084,9.084,0,0,1-3.082-.58l-.6.6a10.03,10.03,0,0,0,3.68.752,11.078,11.078,0,0,0,5.253-1.49,20.2,20.2,0,0,0,3.721-2.66,1.992,1.992,0,0,0,.682-1.5A1.956,1.956,0,0,0,1550.571,337.472Zm-18.366.815a1.232,1.232,0,0,1,.426-.923c1.648-1.477,4.94-3.954,8.46-3.954a9.084,9.084,0,0,1,3.082.58l.6-.6a10.031,10.031,0,0,0-3.68-.752,11.077,11.077,0,0,0-5.253,1.49,20.18,20.18,0,0,0-3.721,2.66,1.983,1.983,0,0,0,0,2.993,20.263,20.263,0,0,0,3.644,2.618l.568-.569a19.187,19.187,0,0,1-3.7-2.623A1.232,1.232,0,0,1,1532.2,338.287Z" transform="translate(-1531.435 -332.64)" fill="#83c0ca"/>
  </g>
  <g id="Group_100" data-name="Group 100" transform="translate(6.558 4.152)">
    <path id="Path_41" data-name="Path 41" d="M2020.74,521.445l-4.21,4.21a3.1,3.1,0,0,1,4.21-4.21Z" transform="translate(-2016.145 -521.06)" fill="#83c0ca"/>
    <path id="Path_42" data-name="Path 42" d="M2139.03,640.837a3.1,3.1,0,0,1-4.595,2.712l4.209-4.21A3.083,3.083,0,0,1,2139.03,640.837Z" transform="translate(-2132.835 -637.74)" fill="#83c0ca"/>
  </g>
  <path id="Path_43" data-name="Path 43" d="M1709.389,228.525h0a.467.467,0,0,1,0-.66l13.566-13.566a.467.467,0,0,1,.66,0h0a.467.467,0,0,1,0,.66l-13.566,13.566A.467.467,0,0,1,1709.389,228.525Z" transform="translate(-1706.846 -214.161)" fill="#83c0ca"/>
</svg>
