<svg xmlns="http://www.w3.org/2000/svg" width="21.479" height="21.479" viewBox="0 0 21.479 21.479">
  <path id="icon" d="M1306.958,6409.921a.769.769,0,0,0-.933.187l-1.733,1.72a10.375,10.375,0,0,0-3.26-2.087,10.105,10.105,0,0,0-7.766.074,10.109,10.109,0,0,0-5.453,5.453,10.112,10.112,0,0,0,0,7.946,10.114,10.114,0,0,0,5.453,5.453,9.973,9.973,0,0,0,3.973.813,10.18,10.18,0,0,0,4.36-.966,10,10,0,0,0,3.52-2.728.436.436,0,0,0,.1-.3.366.366,0,0,0-.127-.272l-1.826-1.84a.513.513,0,0,0-.333-.12.408.408,0,0,0-.307.16,6.786,6.786,0,0,1-8.033,2.113,6.768,6.768,0,0,1-3.64-3.64,6.756,6.756,0,0,1,0-5.292,6.767,6.767,0,0,1,3.64-3.642,6.815,6.815,0,0,1,7.3,1.288l-1.841,1.84a.757.757,0,0,0-.187.919.8.8,0,0,0,.787.534h5.973a.864.864,0,0,0,.853-.854v-5.973A.8.8,0,0,0,1306.958,6409.921Z" transform="translate(-1286.499 -6408.502)" fill="none" stroke="#141e4e" stroke-width="1"/>
</svg>
