<svg xmlns="http://www.w3.org/2000/svg" width="118.463" height="76" viewBox="0 0 118.463 76">
  <g id="icsclogo" transform="translate(-184.133 -317.996)">
    <path id="Path_3" data-name="Path 3" d="M189.466,343.718A21.08,21.08,0,0,1,227.131,330.7l3.652-2.866a25.722,25.722,0,1,0-20.345,41.605l.021-4.64a21.084,21.084,0,0,1-20.993-21.082" transform="translate(-0.359)" fill="#fff"/>
    <path id="Path_4" data-name="Path 4" d="M208.192,353.906a11.9,11.9,0,0,1,21.312-7.27l3.861-2.982a16.773,16.773,0,1,0-13.382,27.024l.031-4.877a11.9,11.9,0,0,1-11.822-11.9" transform="translate(-9.897 -9.873)" fill="#fff"/>
    <rect id="Rectangle_8" data-name="Rectangle 8" width="4.474" height="25.112" transform="translate(219.475 344.382)" fill="#fff"/>
    <path id="Path_5" data-name="Path 5" d="M297.471,389.917l3.124,2.7a10.148,10.148,0,0,1-2.13,2.2,13.22,13.22,0,0,1-3.373,1.917,11.282,11.282,0,0,1-4.226.781,12.063,12.063,0,0,1-6.232-1.6,11.406,11.406,0,0,1-4.261-4.385,12.784,12.784,0,0,1-1.544-6.3,13.26,13.26,0,0,1,.887-4.865,12.329,12.329,0,0,1,2.5-3.994,11.574,11.574,0,0,1,3.853-2.7,12.213,12.213,0,0,1,4.936-.976,11.267,11.267,0,0,1,5.841,1.385,12.174,12.174,0,0,1,3.746,3.373l-3.16,2.805a9.807,9.807,0,0,0-2.645-2.627,6.737,6.737,0,0,0-3.781-.994,6.824,6.824,0,0,0-3.995,1.172,7.649,7.649,0,0,0-2.592,3.107,9.8,9.8,0,0,0-.905,4.208,9.219,9.219,0,0,0,.905,4.119,7.407,7.407,0,0,0,2.539,2.947,6.69,6.69,0,0,0,3.835,1.1,7.735,7.735,0,0,0,3.32-.6,6.868,6.868,0,0,0,2.023-1.4q.763-.8,1.332-1.367" transform="translate(-48.858 -28.222)" fill="#fff"/>
    <path id="Path_6" data-name="Path 6" d="M334.4,393.072l3.239-2.876q.625.639,1.472,1.384a8.047,8.047,0,0,0,2.025,1.279,6.562,6.562,0,0,0,2.724.532,4.591,4.591,0,0,0,3.221-.976,3.033,3.033,0,0,0,1.049-2.29,2.7,2.7,0,0,0-1.289-2.38,13.349,13.349,0,0,0-4.6-1.455,9.364,9.364,0,0,1-3.7-1.456,6.614,6.614,0,0,1-2.89-5.468,6.347,6.347,0,0,1,.939-3.356,6.783,6.783,0,0,1,2.834-2.5,10.525,10.525,0,0,1,4.767-.959,12.064,12.064,0,0,1,3.35.408,9.391,9.391,0,0,1,2.338.995,7.332,7.332,0,0,1,1.454,1.136q.514.551.736.8l-3.056,2.77q-.221-.213-.865-.746a7.047,7.047,0,0,0-1.656-.976,6.083,6.083,0,0,0-2.448-.444,3.885,3.885,0,0,0-2.817.888,2.545,2.545,0,0,0-.9,1.776,2.46,2.46,0,0,0,1.049,2.041,10.813,10.813,0,0,0,4.067,1.4,13.708,13.708,0,0,1,3.589,1.26,7.175,7.175,0,0,1,2.706,2.414,7,7,0,0,1,1.031,3.959,6.382,6.382,0,0,1-1.141,3.711,7.836,7.836,0,0,1-3.148,2.61,10.411,10.411,0,0,1-4.546.959,11.974,11.974,0,0,1-4.289-.71,11.684,11.684,0,0,1-3.166-1.758,14.725,14.725,0,0,1-2.079-1.971" transform="translate(-77.533 -28.147)" fill="#fff"/>
    <path id="Path_7" data-name="Path 7" d="M401.619,389.917l3.125,2.7a10.159,10.159,0,0,1-2.13,2.2,13.224,13.224,0,0,1-3.373,1.917,11.285,11.285,0,0,1-4.225.781,12.064,12.064,0,0,1-6.232-1.6,11.405,11.405,0,0,1-4.261-4.385,12.78,12.78,0,0,1-1.545-6.3,13.249,13.249,0,0,1,.888-4.865,12.312,12.312,0,0,1,2.5-3.994,11.563,11.563,0,0,1,3.852-2.7,12.215,12.215,0,0,1,4.936-.976A11.266,11.266,0,0,1,401,374.081a12.187,12.187,0,0,1,3.746,3.373l-3.16,2.805a9.8,9.8,0,0,0-2.645-2.627,6.736,6.736,0,0,0-3.781-.994,6.823,6.823,0,0,0-3.995,1.172,7.649,7.649,0,0,0-2.592,3.107,9.8,9.8,0,0,0-.906,4.208,9.219,9.219,0,0,0,.906,4.119,7.407,7.407,0,0,0,2.539,2.947,6.691,6.691,0,0,0,3.835,1.1,7.73,7.73,0,0,0,3.32-.6,6.852,6.852,0,0,0,2.024-1.4q.764-.8,1.332-1.367" transform="translate(-102.594 -28.222)" fill="#fff"/>
    <rect id="Rectangle_9" data-name="Rectangle 9" width="1.584" height="5.969" transform="translate(184.626 377.135)" fill="#fff"/>
    <path id="Path_8" data-name="Path 8" d="M192.288,446.141v-5.969h1.441l2.291,3.329v-3.329h1.565v5.969h-1.351l-2.381-3.428v3.428Z" transform="translate(-4.207 -63.037)" fill="#fff"/>
    <path id="Path_9" data-name="Path 9" d="M207.1,446.141v-5.969h1.441l2.292,3.329v-3.329h1.566v5.969h-1.351l-2.381-3.428v3.428Z" transform="translate(-11.848 -63.037)" fill="#fff"/>
    <path id="Path_10" data-name="Path 10" d="M224.531,446.112a3.243,3.243,0,0,1-1.24-.232,2.893,2.893,0,0,1-.985-.658,3.05,3.05,0,0,1-.649-1,3.488,3.488,0,0,1,0-2.506,3,3,0,0,1,.649-.994,2.924,2.924,0,0,1,.985-.653,3.422,3.422,0,0,1,2.479,0,2.992,2.992,0,0,1,.989.653,2.912,2.912,0,0,1,.649.994,3.557,3.557,0,0,1,0,2.506,2.942,2.942,0,0,1-1.638,1.655,3.246,3.246,0,0,1-1.239.232m0-1.486a1.381,1.381,0,0,0,.8-.224,1.417,1.417,0,0,0,.5-.6,2.118,2.118,0,0,0,0-1.665,1.419,1.419,0,0,0-.5-.6,1.384,1.384,0,0,0-.8-.224,1.369,1.369,0,0,0-.792.224,1.45,1.45,0,0,0-.5.6,2.08,2.08,0,0,0,0,1.665,1.448,1.448,0,0,0,.5.6,1.365,1.365,0,0,0,.792.224" transform="translate(-19.241 -62.865)" fill="#fff"/>
    <path id="Path_11" data-name="Path 11" d="M238.029,446.141l-2.166-5.969h1.728l1.342,4.153,1.253-4.153h1.691l-2.175,5.969Z" transform="translate(-26.69 -63.037)" fill="#fff"/>
    <path id="Path_12" data-name="Path 12" d="M248.048,446.141l2.193-5.969h1.817l2.112,5.969h-1.71l-.385-1.235h-2l-.394,1.235Zm2.354-2.39h1.351l-.662-2.192Z" transform="translate(-32.977 -63.037)" fill="#fff"/>
    <path id="Path_13" data-name="Path 13" d="M262.586,446.141v-4.582h-1.835v-1.387H266v1.387h-1.816v4.582Z" transform="translate(-39.531 -63.037)" fill="#fff"/>
    <rect id="Rectangle_10" data-name="Rectangle 10" width="1.584" height="5.969" transform="translate(227.985 377.135)" fill="#fff"/>
    <path id="Path_14" data-name="Path 14" d="M281.864,446.141v-5.969h1.441L285.6,443.5v-3.329h1.566v5.969h-1.351l-2.381-3.428v3.428Z" transform="translate(-50.425 -63.037)" fill="#fff"/>
    <path id="Path_15" data-name="Path 15" d="M299.469,443.785V442.56h2.452v2.693a3.288,3.288,0,0,1-1.234.658,5,5,0,0,1-1.388.2,3.4,3.4,0,0,1-1.664-.384,2.605,2.605,0,0,1-1.069-1.088,3.528,3.528,0,0,1-.372-1.669,3.272,3.272,0,0,1,.394-1.62,2.856,2.856,0,0,1,1.1-1.109,3.184,3.184,0,0,1,1.614-.4,3.878,3.878,0,0,1,1.392.246,2.428,2.428,0,0,1,1.087.819l-1.029,1.038a2.784,2.784,0,0,0-.6-.456,1.471,1.471,0,0,0-.738-.179,1.58,1.58,0,0,0-.868.228,1.462,1.462,0,0,0-.542.608,1.952,1.952,0,0,0-.182.855,1.7,1.7,0,0,0,.438,1.221,1.53,1.53,0,0,0,1.163.461,2.064,2.064,0,0,0,.564-.076,1.811,1.811,0,0,0,.519-.246v-.573Z" transform="translate(-57.817 -62.865)" fill="#fff"/>
    <path id="Path_16" data-name="Path 16" d="M320.9,443.857l1.065,1a3.226,3.226,0,0,1-2.657,1.262,3.19,3.19,0,0,1-1.615-.4,2.862,2.862,0,0,1-1.1-1.106A3.241,3.241,0,0,1,316.2,443a3.3,3.3,0,0,1,.394-1.625,2.934,2.934,0,0,1,1.092-1.123,3.136,3.136,0,0,1,1.621-.411,3.951,3.951,0,0,1,1.436.259,2.463,2.463,0,0,1,1.123.9l-1.047,1.056a2.005,2.005,0,0,0-.6-.546,1.535,1.535,0,0,0-.8-.206,1.593,1.593,0,0,0-.855.219,1.453,1.453,0,0,0-.541.591,1.824,1.824,0,0,0-.188.837,1.864,1.864,0,0,0,.192.854,1.429,1.429,0,0,0,.551.595,1.58,1.58,0,0,0,.832.215,1.683,1.683,0,0,0,.85-.188,2.415,2.415,0,0,0,.635-.573" transform="translate(-68.139 -62.865)" fill="#fff"/>
    <path id="Path_17" data-name="Path 17" d="M333.244,446.112a3.245,3.245,0,0,1-1.24-.232,2.9,2.9,0,0,1-.985-.658,3.057,3.057,0,0,1-.648-1,3.488,3.488,0,0,1,0-2.506,3,3,0,0,1,.648-.994,2.934,2.934,0,0,1,.985-.653,3.423,3.423,0,0,1,2.479,0,2.991,2.991,0,0,1,.989.653,2.911,2.911,0,0,1,.649.994,3.557,3.557,0,0,1,0,2.506,2.941,2.941,0,0,1-1.638,1.655,3.245,3.245,0,0,1-1.239.232m0-1.486a1.381,1.381,0,0,0,.8-.224,1.414,1.414,0,0,0,.5-.6,2.118,2.118,0,0,0,0-1.665,1.415,1.415,0,0,0-.5-.6,1.385,1.385,0,0,0-.8-.224,1.369,1.369,0,0,0-.792.224,1.455,1.455,0,0,0-.5.6,2.074,2.074,0,0,0,0,1.665,1.453,1.453,0,0,0,.5.6,1.365,1.365,0,0,0,.792.224" transform="translate(-75.331 -62.865)" fill="#fff"/>
    <path id="Path_18" data-name="Path 18" d="M346.093,446.141l.278-5.969h1.512l1.45,2.6,1.423-2.6h1.521l.277,5.969h-1.6l-.143-3.5-1.047,2.04h-.868l-1.163-2.04-.117,3.5Z" transform="translate(-83.564 -63.037)" fill="#fff"/>
    <path id="Path_19" data-name="Path 19" d="M362.789,446.141l.277-5.969h1.513l1.45,2.6,1.423-2.6h1.522l.277,5.969h-1.6l-.143-3.5-1.047,2.04h-.868l-1.164-2.04-.116,3.5Z" transform="translate(-92.177 -63.037)" fill="#fff"/>
    <path id="Path_20" data-name="Path 20" d="M379.742,446.141v-5.969h4.3v1.369h-2.712v.922h2.229v1.289h-2.229v1.02h2.9v1.369Z" transform="translate(-100.925 -63.037)" fill="#fff"/>
    <path id="Path_21" data-name="Path 21" d="M392.352,446.141v-5.969h2.47a2.289,2.289,0,0,1,1.539.5,1.818,1.818,0,0,1,.582,1.463,1.941,1.941,0,0,1-.949,1.718l1.28,2.291h-1.7l-1.011-2.032H393.9v2.032Zm1.548-3.276h.77a.7.7,0,0,0,.51-.192.69.69,0,0,0,.2-.515.747.747,0,0,0-.188-.537.7.7,0,0,0-.528-.2h-.76Z" transform="translate(-107.431 -63.037)" fill="#fff"/>
    <path id="Path_22" data-name="Path 22" d="M409.548,443.857l1.065,1a3.227,3.227,0,0,1-2.658,1.262,3.192,3.192,0,0,1-1.615-.4,2.865,2.865,0,0,1-1.1-1.106A3.242,3.242,0,0,1,404.85,443a3.3,3.3,0,0,1,.393-1.625,2.931,2.931,0,0,1,1.092-1.123,3.135,3.135,0,0,1,1.62-.411,3.948,3.948,0,0,1,1.436.259,2.464,2.464,0,0,1,1.123.9l-1.047,1.056a2.016,2.016,0,0,0-.6-.546,1.537,1.537,0,0,0-.8-.206,1.592,1.592,0,0,0-.855.219,1.458,1.458,0,0,0-.541.591,1.824,1.824,0,0,0-.188.837,1.864,1.864,0,0,0,.192.854,1.427,1.427,0,0,0,.55.595,1.581,1.581,0,0,0,.833.215,1.682,1.682,0,0,0,.85-.188,2.417,2.417,0,0,0,.636-.573" transform="translate(-113.879 -62.865)" fill="#fff"/>
    <path id="Path_23" data-name="Path 23" d="M419.6,446.141v-5.969h4.3v1.369h-2.712v.922h2.228v1.289h-2.228v1.02h2.9v1.369Z" transform="translate(-121.492 -63.037)" fill="#fff"/>
    <path id="Path_24" data-name="Path 24" d="M184.133,467.422l.957-1.154a2.553,2.553,0,0,0,.658.456,1.922,1.922,0,0,0,.882.206,1.148,1.148,0,0,0,.465-.1.372.372,0,0,0,.224-.376.457.457,0,0,0-.242-.39,2.941,2.941,0,0,0-.689-.3l-.332-.108a4.05,4.05,0,0,1-.729-.335,1.9,1.9,0,0,1-.6-.541,1.364,1.364,0,0,1-.237-.815,1.886,1.886,0,0,1,.264-.993,1.823,1.823,0,0,1,.783-.694,2.844,2.844,0,0,1,1.262-.255,3.483,3.483,0,0,1,1.025.135,3.126,3.126,0,0,1,.721.313,2.2,2.2,0,0,1,.421.323l-.805,1.02a3.325,3.325,0,0,0-.653-.38,1.742,1.742,0,0,0-.7-.147,1,1,0,0,0-.443.1.362.362,0,0,0-.21.353.421.421,0,0,0,.25.4,4.727,4.727,0,0,0,.636.251l.287.09a4.885,4.885,0,0,1,.613.228,2.5,2.5,0,0,1,.568.353,1.579,1.579,0,0,1,.416.542,1.843,1.843,0,0,1,.157.8,1.57,1.57,0,0,1-.327.976,2.166,2.166,0,0,1-.877.671,3,3,0,0,1-1.221.241,4.054,4.054,0,0,1-1.5-.241,3.245,3.245,0,0,1-1.025-.636" transform="translate(0 -74.312)" fill="#fff"/>
    <path id="Path_25" data-name="Path 25" d="M198.148,468.327v-5.969h4.3v1.37h-2.712v.921h2.228v1.289h-2.228v1.02h2.9v1.369Z" transform="translate(-7.231 -74.484)" fill="#fff"/>
    <path id="Path_26" data-name="Path 26" d="M211.2,468.327v-5.969h2.47a2.289,2.289,0,0,1,1.539.5,1.817,1.817,0,0,1,.582,1.463,1.943,1.943,0,0,1-.949,1.718l1.28,2.291h-1.7l-1.011-2.032h-.663v2.032Zm1.548-3.276h.77a.7.7,0,0,0,.51-.193.685.685,0,0,0,.2-.515.745.745,0,0,0-.188-.537.7.7,0,0,0-.528-.2h-.761Z" transform="translate(-13.965 -74.484)" fill="#fff"/>
    <path id="Path_27" data-name="Path 27" d="M225.384,468.327l-2.166-5.969h1.727l1.343,4.153,1.253-4.153h1.691l-2.175,5.969Z" transform="translate(-20.166 -74.484)" fill="#fff"/>
    <rect id="Rectangle_11" data-name="Rectangle 11" width="1.584" height="5.969" transform="translate(210.65 387.874)" fill="#fff"/>
    <path id="Path_28" data-name="Path 28" d="M246.5,468.327v-5.969h1.441l2.291,3.329v-3.329h1.566v5.969h-1.351l-2.381-3.428v3.428Z" transform="translate(-32.176 -74.484)" fill="#fff"/>
    <path id="Path_29" data-name="Path 29" d="M264.543,465.972v-1.226h2.452v2.693a3.292,3.292,0,0,1-1.235.658,5,5,0,0,1-1.388.2,3.4,3.4,0,0,1-1.664-.384,2.612,2.612,0,0,1-1.07-1.088,3.527,3.527,0,0,1-.371-1.669,3.271,3.271,0,0,1,.394-1.62,2.859,2.859,0,0,1,1.1-1.11,3.19,3.19,0,0,1,1.615-.4,3.888,3.888,0,0,1,1.392.246,2.436,2.436,0,0,1,1.087.819l-1.029,1.038a2.777,2.777,0,0,0-.6-.456,1.475,1.475,0,0,0-.738-.179,1.58,1.58,0,0,0-.868.228,1.46,1.46,0,0,0-.542.609,1.939,1.939,0,0,0-.183.855,1.7,1.7,0,0,0,.438,1.221,1.53,1.53,0,0,0,1.163.461,2.06,2.06,0,0,0,.564-.076,1.8,1.8,0,0,0,.519-.246v-.573Z" transform="translate(-39.797 -74.312)" fill="#fff"/>
    <path id="Path_30" data-name="Path 30" d="M286.859,466.043l1.064,1a3.225,3.225,0,0,1-2.657,1.262,3.187,3.187,0,0,1-1.615-.4,2.858,2.858,0,0,1-1.1-1.1,3.245,3.245,0,0,1-.394-1.616,3.3,3.3,0,0,1,.394-1.624,2.92,2.92,0,0,1,1.091-1.123,3.135,3.135,0,0,1,1.621-.411,3.932,3.932,0,0,1,1.436.259,2.46,2.46,0,0,1,1.123.9l-1.047,1.057a2,2,0,0,0-.6-.546,1.535,1.535,0,0,0-.8-.206,1.593,1.593,0,0,0-.855.219,1.456,1.456,0,0,0-.541.591,1.828,1.828,0,0,0-.188.837,1.867,1.867,0,0,0,.192.854,1.436,1.436,0,0,0,.55.595,1.587,1.587,0,0,0,.833.214,1.686,1.686,0,0,0,.851-.187,2.43,2.43,0,0,0,.635-.573" transform="translate(-50.577 -74.312)" fill="#fff"/>
    <path id="Path_31" data-name="Path 31" d="M299.65,468.3a3.238,3.238,0,0,1-1.24-.233,2.9,2.9,0,0,1-.985-.658,3.055,3.055,0,0,1-.648-1,3.487,3.487,0,0,1,0-2.505,3.007,3.007,0,0,1,.648-.994,2.948,2.948,0,0,1,.985-.653,3.423,3.423,0,0,1,2.479,0,2.986,2.986,0,0,1,.989.653,2.907,2.907,0,0,1,.649.994,3.542,3.542,0,0,1,0,2.505,2.942,2.942,0,0,1-1.638,1.655,3.233,3.233,0,0,1-1.239.233m0-1.486a1.385,1.385,0,0,0,.8-.224,1.414,1.414,0,0,0,.5-.6,2.119,2.119,0,0,0,0-1.665,1.416,1.416,0,0,0-.5-.6,1.381,1.381,0,0,0-.8-.224,1.367,1.367,0,0,0-.792.224,1.459,1.459,0,0,0-.5.6,2.086,2.086,0,0,0,0,1.665,1.457,1.457,0,0,0,.5.6,1.37,1.37,0,0,0,.792.224" transform="translate(-57.999 -74.312)" fill="#fff"/>
    <path id="Path_32" data-name="Path 32" d="M312.944,468.327l.278-5.969h1.512l1.45,2.6,1.423-2.6h1.521l.277,5.969h-1.6l-.143-3.5-1.047,2.04h-.868l-1.163-2.04-.117,3.5Z" transform="translate(-66.46 -74.484)" fill="#fff"/>
    <path id="Path_33" data-name="Path 33" d="M330.082,468.327l.277-5.969h1.513l1.45,2.6,1.423-2.6h1.521l.277,5.969h-1.6l-.143-3.5-1.047,2.04h-.868l-1.164-2.04-.116,3.5Z" transform="translate(-75.303 -74.484)" fill="#fff"/>
    <path id="Path_34" data-name="Path 34" d="M347.407,466v-3.642h1.584v3.5a1.339,1.339,0,0,0,.227.806.875.875,0,0,0,.757.313.854.854,0,0,0,.752-.318,1.355,1.355,0,0,0,.224-.8v-3.5h1.6V466a2.537,2.537,0,0,1-.332,1.32,2.222,2.222,0,0,1-.908.859,2.845,2.845,0,0,1-1.329.3,2.9,2.9,0,0,1-1.334-.3,2.186,2.186,0,0,1-.913-.855,2.555,2.555,0,0,1-.331-1.329" transform="translate(-84.241 -74.484)" fill="#fff"/>
    <path id="Path_35" data-name="Path 35" d="M362.27,468.327v-5.969h1.441L366,465.687v-3.329h1.566v5.969h-1.351l-2.381-3.428v3.428Z" transform="translate(-91.91 -74.484)" fill="#fff"/>
    <rect id="Rectangle_12" data-name="Rectangle 12" width="1.584" height="5.969" transform="translate(277.743 387.874)" fill="#fff"/>
    <path id="Path_36" data-name="Path 36" d="M386.2,468.327v-4.582h-1.835v-1.387h5.253v1.387H387.8v4.582Z" transform="translate(-103.31 -74.484)" fill="#fff"/>
    <rect id="Rectangle_13" data-name="Rectangle 13" width="1.584" height="5.969" transform="translate(288.035 387.874)" fill="#fff"/>
    <path id="Path_37" data-name="Path 37" d="M406.366,468.327v-5.969h4.3v1.37h-2.712v.921h2.229v1.289h-2.229v1.02h2.9v1.369Z" transform="translate(-114.661 -74.484)" fill="#fff"/>
    <path id="Path_38" data-name="Path 38" d="M418.4,467.422l.957-1.154a2.544,2.544,0,0,0,.658.456,1.92,1.92,0,0,0,.881.206,1.147,1.147,0,0,0,.465-.1.372.372,0,0,0,.224-.376.457.457,0,0,0-.242-.39,2.955,2.955,0,0,0-.689-.3l-.331-.108a4.053,4.053,0,0,1-.729-.335,1.9,1.9,0,0,1-.6-.541,1.365,1.365,0,0,1-.237-.815,1.882,1.882,0,0,1,.264-.993,1.822,1.822,0,0,1,.782-.694,2.846,2.846,0,0,1,1.262-.255,3.486,3.486,0,0,1,1.025.135,3.126,3.126,0,0,1,.72.313,2.2,2.2,0,0,1,.421.323l-.805,1.02a3.3,3.3,0,0,0-.653-.38,1.737,1.737,0,0,0-.7-.147,1,1,0,0,0-.443.1.363.363,0,0,0-.21.353.42.42,0,0,0,.25.4,4.7,4.7,0,0,0,.636.251l.287.09a4.908,4.908,0,0,1,.612.228,2.5,2.5,0,0,1,.569.353,1.584,1.584,0,0,1,.416.542,1.844,1.844,0,0,1,.157.8,1.57,1.57,0,0,1-.327.976,2.166,2.166,0,0,1-.877.671,3,3,0,0,1-1.222.241,4.058,4.058,0,0,1-1.5-.241,3.235,3.235,0,0,1-1.024-.636" transform="translate(-120.872 -74.312)" fill="#fff"/>
  </g>
</svg>
