<svg xmlns="http://www.w3.org/2000/svg" width="32" height="32" viewBox="0 0 32 32">
  <g id="leftarrow" transform="translate(-667 -679)">
    <g id="btn" transform="translate(667 679)" fill="#141e4e" stroke="#ddd" stroke-miterlimit="10" stroke-width="1">
      <circle cx="16" cy="16" r="16" stroke="none"/>
      <circle cx="16" cy="16" r="15.5" fill="none"/>
    </g>
    <path id="arrow" d="M6.072,10.1a1.168,1.168,0,0,1,0-1.4l2.21-2.743H.831A.83.83,0,0,1,0,5.122V5.094a.83.83,0,0,1,.831-.83H8.286L6.162,1.628a1.125,1.125,0,0,1,0-1.349.668.668,0,0,1,1.086,0l3.259,4.046a.963.963,0,0,1,.124.2,1.172,1.172,0,0,1-.034,1.36L7.2,10.1a.7.7,0,0,1-1.131,0Z" transform="translate(677.584 690)" fill="#83c0ca"/>
  </g>
</svg>
