<svg id="notification" xmlns="http://www.w3.org/2000/svg" width="21.257" height="21.258" viewBox="0 0 21.257 21.258">
  <path id="Combined_shape_8049" data-name="Combined shape 8049" d="M10.629,21.258A2.66,2.66,0,0,1,7.971,18.6H1.329A1.33,1.33,0,0,1,0,17.272a1.31,1.31,0,0,1,.141-.594l2.517-5.034V7.972a7.971,7.971,0,1,1,15.942,0v3.672l2.517,5.034a1.31,1.31,0,0,1,.141.594A1.33,1.33,0,0,1,19.928,18.6H13.286A2.661,2.661,0,0,1,10.629,21.258Zm0-18.6A5.32,5.32,0,0,0,5.315,7.972v3.985a1.335,1.335,0,0,1-.141.594l-1.7,3.392h14.3l-1.7-3.392a1.321,1.321,0,0,1-.141-.594V7.972A5.32,5.32,0,0,0,10.629,2.657Z" fill="#222"/>
</svg>
