<svg xmlns="http://www.w3.org/2000/svg" xmlns:xlink="http://www.w3.org/1999/xlink" width="92" height="92" viewBox="0 0 92 92">
  <defs>
    <linearGradient id="linear-gradient" x1="0.5" x2="0.5" y2="1" gradientUnits="objectBoundingBox">
      <stop offset="0" stop-color="#d1df73"/>
      <stop offset="1" stop-color="#83c0ca"/>
    </linearGradient>
  </defs>
  <g id="password_logo" data-name="password logo" transform="translate(-10426 1278.206)">
    <g id="icon" transform="translate(6822 -2378.206)">
      <circle id="base" cx="46" cy="46" r="46" transform="translate(3604 1100)" fill="url(#linear-gradient)"/>
    </g>
    <path id="icon-2" data-name="icon" d="M3634.327,1181.665a1.106,1.106,0,0,1-.21-1.282l13.462-26.808,1.334-2.656a1.12,1.12,0,0,1,1.79-.289l14.836,14.752a1.109,1.109,0,0,1-.291,1.78l-29.633,14.711a1.122,1.122,0,0,1-1.289-.208Zm3.284-3.266,6.458-3.206-1.63-6.41Zm6.358-12.662,2.146,8.439,7.929-3.937-1.966-4.761a1.116,1.116,0,0,1,2.067-.843l1.9,4.61,6.814-3.383-12.644-12.571-.414.824,1.983,4.8a1.108,1.108,0,0,1-.61,1.449,1.118,1.118,0,0,1-1.458-.606l-1.241-3.008Zm37.9,1.812a4.521,4.521,0,1,1,4.52,4.5A4.512,4.512,0,0,1,3681.864,1167.549Zm2.234,0a2.286,2.286,0,1,0,2.285-2.273A2.283,2.283,0,0,0,3684.1,1167.549Zm-32.261-6.433a1.112,1.112,0,0,1,0,2.222A1.112,1.112,0,0,1,3651.837,1161.116Zm15.678-.775a1.137,1.137,0,0,1,0-1.571,22.822,22.822,0,0,1,4.241-4.08,9.144,9.144,0,0,1,4.986-1.722,11.781,11.781,0,0,1,4.982,1.409,8.089,8.089,0,0,0,4.307,1.075,3.507,3.507,0,0,0,2.751-1.675,1.143,1.143,0,0,1,1.374-.776,1.119,1.119,0,0,1,.78,1.367,5.338,5.338,0,0,1-3.781,3.115,7.971,7.971,0,0,1-5-.5c-1.54-.622-3.042-1.552-4.72-1.758-3.552-.435-6.277,2.725-8.344,5.12a.983.983,0,0,1-.757.321A1.189,1.189,0,0,1,3667.516,1160.341Zm-3.61-6.55c-2.021-3.232-3.291-7.389-1.281-10.945a6.692,6.692,0,0,1,3.5-2.916,9.067,9.067,0,0,1,3.4-5.462,1.128,1.128,0,0,1,1.528.4,1.143,1.143,0,0,1-.4,1.52,6.292,6.292,0,0,0-2.142,3.2,4.779,4.779,0,0,1,2.234.753,5.073,5.073,0,0,1,2.278,3.626,3.765,3.765,0,0,1-1.849,3.854c-1.744.83-3.323-.4-4.154-1.885a8.554,8.554,0,0,1-1.041-3.492,5.057,5.057,0,0,0-2,3.06c-.575,2.531.536,5.059,1.855,7.167a1.094,1.094,0,0,1-1.019,1.644A1.049,1.049,0,0,1,3663.906,1153.791Zm4.289-11.687a6.157,6.157,0,0,0,.757,2.708c.34.607.979,1.548,1.587.685,1.042-1.48-.547-3.54-2.185-3.677-.056-.005-.11-.007-.166-.01C3668.19,1141.908,3668.19,1142.006,3668.195,1142.1Zm-12.537,8.106a4.319,4.319,0,0,1-3.072-3.852c-.433-3.681,3.036-6.151,4.37-9.221,1.5-3.456-1.621-6.039-4.118-7.9a1.113,1.113,0,1,1,1.128-1.918,17.567,17.567,0,0,1,4.4,4.133,6.852,6.852,0,0,1,1.126,4.995,12.211,12.211,0,0,1-2.5,4.816c-.9,1.236-2.013,2.646-2.188,4.206a2.28,2.28,0,0,0,1.451,2.594,1.118,1.118,0,0,1-.284,2.184A1.227,1.227,0,0,1,3655.658,1150.21Zm21.909-3.211a1.111,1.111,0,0,1,0,2.221A1.111,1.111,0,0,1,3677.567,1147Zm3.576-.38a1.112,1.112,0,0,1,0,2.222A1.112,1.112,0,0,1,3681.143,1146.619Zm-2.183-2.834a1.111,1.111,0,0,1,0,2.221A1.111,1.111,0,0,1,3678.96,1143.785Zm-34.98-6.257a1.111,1.111,0,0,1,0,2.222A1.111,1.111,0,0,1,3643.98,1137.528Zm3.577-.38a1.111,1.111,0,0,1,0,2.222A1.111,1.111,0,0,1,3647.556,1137.148Zm31.556.669-4.493-4.467a1.106,1.106,0,0,1,0-1.571l4.492-4.468a1.123,1.123,0,0,1,1.58,0l4.494,4.468a1.108,1.108,0,0,1,0,1.572l-4.493,4.467a1.122,1.122,0,0,1-1.58,0Zm-2.123-5.253,2.912,2.9,2.914-2.9-2.914-2.9Zm-31.616,1.75a1.111,1.111,0,0,1,0,2.221A1.111,1.111,0,0,1,3645.373,1134.314Z" transform="translate(6811 -2388.693)" fill="#fff"/>
  </g>
</svg>
