<svg xmlns="http://www.w3.org/2000/svg" xmlns:xlink="http://www.w3.org/1999/xlink" width="92" height="92" viewBox="0 0 92 92">
  <defs>
    <linearGradient id="linear-gradient" x1="0.5" x2="0.5" y2="1" gradientUnits="objectBoundingBox">
      <stop offset="0" stop-color="#d1df73"/>
      <stop offset="1" stop-color="#83c0ca"/>
    </linearGradient>
  </defs>
  <g id="icon" transform="translate(-3604 -1100)">
    <circle id="base" cx="46" cy="46" r="46" transform="translate(3604 1100)" fill="url(#linear-gradient)"/>
    <path id="icon-2" data-name="icon" d="M1329.1,6410.941a1.624,1.624,0,0,0-1.968.394l-3.656,3.628a21.874,21.874,0,0,0-6.876-4.4,21.19,21.19,0,0,0-8-1.56,20.978,20.978,0,0,0-8.38,1.715,21.327,21.327,0,0,0-11.5,11.5,21.327,21.327,0,0,0,0,16.76,21.337,21.337,0,0,0,11.5,11.5,21.028,21.028,0,0,0,8.38,1.715,21.457,21.457,0,0,0,9.2-2.038,21.087,21.087,0,0,0,7.424-5.753.918.918,0,0,0,.21-.631.771.771,0,0,0-.267-.575l-3.851-3.881a1.084,1.084,0,0,0-.7-.253.864.864,0,0,0-.647.338,14.309,14.309,0,0,1-16.943,4.456,14.27,14.27,0,0,1-7.677-7.677,14.251,14.251,0,0,1,0-11.163,14.267,14.267,0,0,1,7.677-7.68,14.373,14.373,0,0,1,15.4,2.715l-3.882,3.881a1.6,1.6,0,0,0-.394,1.938,1.682,1.682,0,0,0,1.66,1.127h12.6a1.823,1.823,0,0,0,1.8-1.8v-12.6A1.682,1.682,0,0,0,1329.1,6410.941Z" transform="translate(2340.854 -5285.147)" fill="#fff"/>
  </g>
</svg>
