<svg xmlns="http://www.w3.org/2000/svg" width="25.277" height="25.277" viewBox="0 0 25.277 25.277">
  <g id="pdfdownload" transform="translate(-663.5 -643.178)">
    <path id="_1" data-name="1" d="M12.139,0A12.139,12.139,0,1,1,0,12.139,12.139,12.139,0,0,1,12.139,0Z" transform="translate(664 643.678)" fill="none" stroke="#de4d8d" stroke-width="1"/>
    <path id="icon" d="M.483,9.027A.484.484,0,0,1,0,8.543V8.382A.484.484,0,0,1,.483,7.9h8.06a.484.484,0,0,1,.484.484v.161a.484.484,0,0,1-.484.484ZM4.44,6.77a.43.43,0,0,1-.378-.224L1.747,5a.615.615,0,0,1-.179-.771.454.454,0,0,1,.667-.207L4.01,5.208V.43A.43.43,0,0,1,4.44,0h.147a.43.43,0,0,1,.43.43V5.208L6.792,4.025a.454.454,0,0,1,.667.207A.616.616,0,0,1,7.28,5L4.965,6.546a.43.43,0,0,1-.378.224Z" transform="translate(672 651.2)" fill="#de4d8d"/>
  </g>
</svg>
