<svg xmlns="http://www.w3.org/2000/svg" xmlns:xlink="http://www.w3.org/1999/xlink" width="92" height="92" viewBox="0 0 92 92">
  <defs>
    <linearGradient id="linear-gradient" x1="0.5" x2="0.5" y2="1" gradientUnits="objectBoundingBox">
      <stop offset="0" stop-color="#d1df73"/>
      <stop offset="1" stop-color="#83c0ca"/>
    </linearGradient>
  </defs>
  <g id="resetpassword" transform="translate(-2248.504 4113.25)">
    <g id="icon" transform="translate(-1355.496 -5213.25)">
      <circle id="base" cx="46" cy="46" r="46" transform="translate(3604 1100)" fill="url(#linear-gradient)"/>
    </g>
    <g id="Reset_Password_Icon" data-name="Reset Password Icon" transform="translate(2266 -4095.573)">
      <path id="Path_44" data-name="Path 44" d="M-1640.379,3126.408v5.83h-14.242v-5.83a7.126,7.126,0,0,1,7.125-7.125,7.1,7.1,0,0,1,5.031,2.085A7.137,7.137,0,0,1-1640.379,3126.408Z" transform="translate(1675.461 -3109.297)" fill="none" stroke="#fff" stroke-miterlimit="10" stroke-width="3.917"/>
      <path id="Rectangle_22" data-name="Rectangle 22" d="M3.8,0H18.315a3.8,3.8,0,0,1,3.8,3.8V18.315a3.8,3.8,0,0,1-3.8,3.8H3.8a3.8,3.8,0,0,1-3.8-3.8V3.8A3.8,3.8,0,0,1,3.8,0Z" transform="translate(16.828 23.028)" fill="none" stroke="#fff" stroke-miterlimit="10" stroke-width="3.917"/>
      <circle id="Ellipse_2" data-name="Ellipse 2" cx="3.159" cy="3.159" r="3.159" transform="translate(24.727 30.927)" fill="none" stroke="#fff" stroke-miterlimit="10" stroke-width="2.35"/>
      <path id="Path_45" data-name="Path 45" d="M-1644.16,3151.515h-1.489v1.265h.46v1.655h.568v-1.655h.46Z" transform="translate(1672.791 -3118.889)" fill="#fff"/>
      <g id="Group_115" data-name="Group 115" transform="translate(0 28.323)">
        <g id="Group_114" data-name="Group 114">
          <g id="Group_113" data-name="Group 113">
            <line id="Line_1" data-name="Line 1" fill="none" stroke="#fff" stroke-linecap="round" stroke-miterlimit="10" stroke-width="3.917"/>
            <path id="Path_46" data-name="Path 46" d="M-1684.009,3150.186a28.327,28.327,0,0,0,28.124,24.953A28.263,28.263,0,0,0-1634.17,3165" transform="translate(1684.207 -3146.816)" fill="none" stroke="#fff" stroke-linecap="round" stroke-miterlimit="10" stroke-width="3.917" stroke-dasharray="0 4.809"/>
            <line id="Line_2" data-name="Line 2" transform="translate(51.083 16.859)" fill="none" stroke="#fff" stroke-linecap="round" stroke-miterlimit="10" stroke-width="3.917"/>
          </g>
        </g>
      </g>
      <path id="Path_47" data-name="Path 47" d="M-1627.65,3132.885a28.323,28.323,0,0,0-28.319-27.819,28.323,28.323,0,0,0-28.322,28.323" transform="translate(1684.291 -3105.066)" fill="none" stroke="#fff" stroke-linecap="round" stroke-linejoin="round" stroke-width="3.917"/>
      <path id="Path_48" data-name="Path 48" d="M-1616.048,3133.919l8.814,7.354,7.043-8.44" transform="translate(1663.982 -3113.33)" fill="none" stroke="#fff" stroke-linecap="round" stroke-linejoin="round" stroke-width="3.917"/>
    </g>
  </g>
</svg>
