<svg xmlns="http://www.w3.org/2000/svg" width="41.073" height="41.073" viewBox="0 0 41.073 41.073">
  <g id="send" transform="translate(0 0)">
    <path id="btn" d="M20.536,0A20.536,20.536,0,1,1,0,20.536,20.536,20.536,0,0,1,20.536,0Z" transform="translate(0 0)" fill="#83c0ca"/>
    <path id="icon" d="M10.7,17.1a.806.806,0,0,1-.723-.454L6.888,10.218.456,7.134A.8.8,0,0,1,.529,5.658L16.043.049a.8.8,0,0,1,.84.186.8.8,0,0,1,.188.839L11.453,16.569a.8.8,0,0,1-.714.528H10.7ZM14.334,3.915,8.459,9.782,10.6,14.228ZM13.2,2.782,2.874,6.515,7.324,8.649Z" transform="translate(11.123 12.851)" fill="#fff"/>
  </g>
</svg>
