<svg id="setting" xmlns="http://www.w3.org/2000/svg" width="20.006" height="16.007" viewBox="0 0 20.006 16.007">
  <path id="Combined_shape_11899" data-name="Combined shape 11899" d="M14,16.007a1,1,0,0,1-1-1v-2a1,1,0,0,1,1-1h2a1,1,0,0,1,1,1h2a1,1,0,0,1,0,2h-2a1,1,0,0,1-1,1Zm-3-1H1a1,1,0,0,1,0-2H11v2h0ZM9,10A1,1,0,0,1,8,9V7A1,1,0,0,1,9,6h2a1,1,0,0,1,1,1V9a1,1,0,0,1-1,1Zm5-1V7h5a1,1,0,0,1,0,2ZM6,9H1A1,1,0,0,1,1,7H6V9H6ZM4,4A1,1,0,0,1,3,3H1A1,1,0,0,1,1,1H3A1,1,0,0,1,4,0H6A1,1,0,0,1,7,1V3A1,1,0,0,1,6,4ZM9,3V1h10a1,1,0,0,1,0,2Z" fill="#fefeff"/>
</svg>
