<svg id="unhide" xmlns="http://www.w3.org/2000/svg" width="19.312" height="11.294" viewBox="0 0 19.312 11.294">
  <g id="Group_96" data-name="Group 96" transform="translate(0 0)">
    <path id="Path_39" data-name="Path 39" d="M50.911,343.933a11.078,11.078,0,0,1-5.253-1.49,20.18,20.18,0,0,1-3.721-2.66,1.983,1.983,0,0,1,0-2.993,20.178,20.178,0,0,1,3.721-2.66,11.078,11.078,0,0,1,5.253-1.49,11.079,11.079,0,0,1,5.253,1.49,20.18,20.18,0,0,1,3.721,2.66h0a1.983,1.983,0,0,1,0,2.993,20.18,20.18,0,0,1-3.721,2.66A11.078,11.078,0,0,1,50.911,343.933Zm0-10.524c-3.521,0-6.812,2.477-8.46,3.954a1.214,1.214,0,0,0,0,1.847c1.648,1.477,4.94,3.954,8.46,3.954s6.812-2.477,8.46-3.954a1.214,1.214,0,0,0,0-1.847h0C57.723,335.886,54.432,333.409,50.911,333.409Z" transform="translate(-41.255 -332.639)" fill="#83c0ca"/>
  </g>
  <g id="Group_97" data-name="Group 97" transform="translate(6.558 2.549)">
    <circle id="Ellipse_1" data-name="Ellipse 1" cx="3.098" cy="3.098" r="3.098" fill="#83c0ca"/>
  </g>
</svg>
