<svg xmlns="http://www.w3.org/2000/svg" width="83.699" height="68.317" viewBox="0 0 83.699 68.317">
  <path id="upload" d="M39.223,65.865V41.136l-5.57,5.826a1.916,1.916,0,0,1-2.65.232l-.659-.417a1.811,1.811,0,0,1,0-2.595l9.447-9.8c.012-.013.014-.029.028-.042l.662-.647a1.918,1.918,0,0,1,2.657,0l.662.647a.473.473,0,0,1,.031.042l9.687,9.951a1.808,1.808,0,0,1,0,2.593l-.659.422a1.91,1.91,0,0,1-2.645-.236l-5.756-5.951v24.7a2.622,2.622,0,0,1-5.233,0Zm16-9.324a2.538,2.538,0,0,1,2.617-2.454h5.98c8.952,0,14.861-9.319,14.861-17.685,0-9.189-8.526-16.583-18.246-16.775l-1.887-.04L57.99,17.9C55.288,9.71,49.447,4.907,39.054,4.907,26.086,4.907,17.7,13.922,17.7,25.871l.019.031.212,2.253-2.374.382c-5.789.932-10.4,6.5-10.4,12.672,0,6.981,5.768,12.879,12.5,12.879h7.56a2.459,2.459,0,1,1,0,4.907H17.65a17.8,17.8,0,0,1-5.132-34.8C13.425,10.5,23.974,0,39.054,0,50.9,0,58.748,5.751,62.4,14.832,74.233,16.024,83.7,25.078,83.7,36.4c0,10.538-6.816,22.261-19.9,22.585l-5.961.007A2.541,2.541,0,0,1,55.222,56.541Z" fill="#83c0ca"/>
</svg>
